<svg xmlns="http://www.w3.org/2000/svg" viewBox="0 0 512 512">
  <circle cx="256" cy="256" r="256" fill="#000000"/>
  <path fill="#22c55e" d="M336 192h-16c-8.8 0-16 7.2-16 16v48c0 8.8 7.2 16 16 16h16v32c0 8.8 7.2 16 16 16h32v32c0 8.8 7.2 16 16 16h32c8.8 0 16-7.2 16-16V192c0-53-43-96-96-96-21.8 0-42.2 7.2-59 19.5-19.5-12.3-42.6-19.5-67-19.5-61.9 0-112 50.1-112 112s50.1 112 112 112c24.4 0 47.5-7.2 67-19.5 16.8 12.3 37.2 19.5 59 19.5 9.8 0 19.4-1.4 28.5-4h-16.5c-8.8 0-16-7.2-16-16v-32c0-8.8-7.2-16-16-16h-32c-8.8 0-16-7.2-16-16v-32c0-8.8-7.2-16-16-16h-16c-24.4 0-47.5 7.2-67 19.5-16.8-12.3-37.2-19.5-59-19.5-35.3 0-64-28.7-64-64s28.7-64 64-64 64 28.7 64 64c0 8.8 7.2 16 16 16h48c35.3 0 64 28.7 64 64s-28.7 64-64 64c-8.8 0-16 7.2-16 16v16h64v-32h-32v-32h-32v-48h16z"/>
  <path fill="#22c55e" d="M216.5 285.5c-48.6 15.6-92.5-28.4-76.9-76.9 2.5-7.8 8.4-13.7 16.3-16.3 48.6-15.6 92.5 28.4 76.9 76.9-2.6 7.8-8.5 13.8-16.3 16.3zM153 221c-2.7 8.3 1.8 17 9.8 19.4 8.3 2.5 17-1.7 19.4-9.8 2.5-8.3-1.7-17-9.8-19.4-8.1-2.6-16.9 1.6-19.4 9.8z"/>
  <path fill="#22c55e" d="M280 160c-44.2 0-80 35.8-80 80 0 16.6 5.1 32 13.8 44.9-22 17.6-49.4 28.1-79.3 28.1-70.7 0-128-57.3-128-128S63.3 57 134 57c29.9 0 57.3 10.5 79.3 28.1 12.6-16.9 33.2-28 56.7-28 21.6 0 40.8 9.3 53.8 24.1L280 160z" opacity="0"/>
  <path fill="#22c55e" d="M232.7 178.6c-48.4-23.7-106.6 7.8-112.3 61.6-1.1 10.1 11.7 15.8 19.4 8.6 12.3-11.5 29.5-16.5 46.1-13.5 16.6 3 31.4 12.5 39.7 26.6 5.2 8.8 16.9 8.8 22.1 0 8.2-14.1 23.1-23.6 39.7-26.6 16.6-3 33.8 2 46.1 13.5 7.7 7.2 20.5 1.5 19.4-8.6-5.7-53.8-63.9-85.3-112.3-61.6-.3.1-.6.1-.8.1-.3-.1-.5-.1-.8-.1z"/>
</svg>
